<svg xmlns="http://www.w3.org/2000/svg" width="249" height="79" viewBox="0 0 249 79">
  <path fill="#146B3A" fill-rule="evenodd" d="M904.582031,707.761719 L909.5625,707.761719 C910.604172,707.761719 911.95507,709.096341 913.615234,711.765625 L913.615234,714.792969 C913.615234,717.201835 912.264336,719.871079 909.5625,722.800781 C918.25395,726.707051 922.599609,733.73823 922.599609,743.894531 L922.599609,745.896484 C920.027982,761.944742 912.003974,769.96875 898.527344,769.96875 C893.774716,770.619795 891.105472,770.945312 890.519531,770.945312 C889.184889,768.048163 888.517578,762.709674 888.517578,754.929688 C888.517578,731.785041 892.863238,716.729853 901.554688,709.763672 L904.582031,707.761719 Z M901.554688,719.822266 L902.580078,719.822266 C902.580078,719.431639 903.9147,717.755223 906.583984,714.792969 L906.583984,713.816406 C904.142566,715.053392 902.46615,717.055325 901.554688,719.822266 Z M897.550781,728.855469 C895.532542,736.440142 894.523438,746.12429 894.523438,757.908203 L894.523438,762.9375 L898.527344,762.9375 C909.237033,760.984365 914.591797,755.304083 914.591797,745.896484 L914.591797,741.892578 C914.591797,734.698532 911.255242,730.352872 904.582031,728.855469 L897.550781,728.855469 Z M955.998047,692.722656 C956.974614,692.722656 957.983719,693.731761 959.025391,695.75 C951.017538,714.695407 947.013672,728.057904 947.013672,735.837891 C947.013672,751.495521 946.330085,762.205049 944.962891,767.966797 L941.984375,767.966797 L939.982422,766.941406 C941.968109,745.749894 942.960938,732.387397 942.960938,726.853516 C941.430982,726.853516 938.094427,716.485781 932.951172,695.75 L932.951172,693.748047 L934.953125,693.748047 C936.776051,693.748047 939.787088,701.430262 943.986328,716.794922 L944.962891,716.794922 C950.529325,701.527918 954.207673,693.50391 955.998047,692.722656 Z M975.919922,700.730469 L982.951172,700.730469 C989.624382,702.325529 992.960938,706.345671 992.960938,712.791016 L992.960938,728.855469 C992.960938,751.674593 988.957071,765.378883 980.949219,769.96875 L977.921875,769.96875 C970.662724,769.96875 966.317064,758.933704 964.884766,736.863281 C964.884766,717.462143 968.563114,705.417992 975.919922,700.730469 Z M970.890625,731.833984 L970.890625,737.839844 C970.890625,746.368532 972.567041,755.076127 975.919922,763.962891 L977.921875,763.962891 C982.609398,763.962891 985.620436,749.916807 986.955078,721.824219 L986.955078,718.796875 C986.955078,713.65362 984.611352,708.982443 979.923828,704.783203 C973.901663,706.964204 970.890625,715.981041 970.890625,731.833984 Z M1023.625,707.761719 L1028.60547,707.761719 C1029.64714,707.761719 1030.99804,709.096341 1032.6582,711.765625 L1032.6582,714.792969 C1032.6582,717.201835 1031.30731,719.871079 1028.60547,722.800781 C1037.29692,726.707051 1041.64258,733.73823 1041.64258,743.894531 L1041.64258,745.896484 C1039.07095,761.944742 1031.04694,769.96875 1017.57031,769.96875 C1012.81768,770.619795 1010.14844,770.945312 1009.5625,770.945312 C1008.22786,768.048163 1007.56055,762.709674 1007.56055,754.929688 C1007.56055,731.785041 1011.90621,716.729853 1020.59766,709.763672 L1023.625,707.761719 Z M1020.59766,719.822266 L1021.62305,719.822266 C1021.62305,719.431639 1022.95767,717.755223 1025.62695,714.792969 L1025.62695,713.816406 C1023.18553,715.053392 1021.50912,717.055325 1020.59766,719.822266 Z M1016.59375,728.855469 C1014.57551,736.440142 1013.56641,746.12429 1013.56641,757.908203 L1013.56641,762.9375 L1017.57031,762.9375 C1028.28,760.984365 1033.63477,755.304083 1033.63477,745.896484 L1033.63477,741.892578 C1033.63477,734.698532 1030.29821,730.352872 1023.625,728.855469 L1016.59375,728.855469 Z M1067.13086,725.828125 L1068.10742,725.828125 C1068.10742,726.544274 1068.44922,727.553379 1069.13281,728.855469 C1068.44922,738.263068 1068.10742,746.287076 1068.10742,752.927734 L1068.10742,755.90625 C1068.10742,756.882817 1067.11459,757.891922 1065.12891,758.933594 C1063.43619,758.933594 1062.42708,757.598972 1062.10156,754.929688 C1062.10156,735.528549 1063.77798,725.828125 1067.13086,725.828125 Z M1064.10352,763.962891 L1066.10547,763.962891 C1067.44011,764.158204 1068.10742,764.825515 1068.10742,765.964844 L1068.10742,767.966797 C1068.10742,769.301439 1067.44011,769.96875 1066.10547,769.96875 L1064.10352,769.96875 C1062.76887,769.96875 1062.10156,769.301439 1062.10156,767.966797 L1062.10156,765.964844 C1062.29688,764.630202 1062.96419,763.962891 1064.10352,763.962891 Z M1100.57812,725.828125 L1101.55469,725.828125 C1101.55469,726.544274 1101.89648,727.553379 1102.58008,728.855469 C1101.89648,738.263068 1101.55469,746.287076 1101.55469,752.927734 L1101.55469,755.90625 C1101.55469,756.882817 1100.56186,757.891922 1098.57617,758.933594 C1096.88346,758.933594 1095.87435,757.598972 1095.54883,754.929688 C1095.54883,735.528549 1097.22524,725.828125 1100.57812,725.828125 Z M1097.55078,763.962891 L1099.55273,763.962891 C1100.88738,764.158204 1101.55469,764.825515 1101.55469,765.964844 L1101.55469,767.966797 C1101.55469,769.301439 1100.88738,769.96875 1099.55273,769.96875 L1097.55078,769.96875 C1096.21614,769.96875 1095.54883,769.301439 1095.54883,767.966797 L1095.54883,765.964844 C1095.74414,764.630202 1096.41145,763.962891 1097.55078,763.962891 Z M1134.02539,725.828125 L1135.00195,725.828125 C1135.00195,726.544274 1135.34375,727.553379 1136.02734,728.855469 C1135.34375,738.263068 1135.00195,746.287076 1135.00195,752.927734 L1135.00195,755.90625 C1135.00195,756.882817 1134.00912,757.891922 1132.02344,758.933594 C1130.33072,758.933594 1129.32162,757.598972 1128.99609,754.929688 C1128.99609,735.528549 1130.67251,725.828125 1134.02539,725.828125 Z M1130.99805,763.962891 L1133,763.962891 C1134.33464,764.158204 1135.00195,764.825515 1135.00195,765.964844 L1135.00195,767.966797 C1135.00195,769.301439 1134.33464,769.96875 1133,769.96875 L1130.99805,769.96875 C1129.6634,769.96875 1128.99609,769.301439 1128.99609,767.966797 L1128.99609,765.964844 C1129.19141,764.630202 1129.85872,763.962891 1130.99805,763.962891 Z" transform="translate(-888 -692)"/>
</svg>
