<svg xmlns="http://www.w3.org/2000/svg" width="924" height="426" viewBox="0 0 924 426">
  <path fill="#EA4630" fill-rule="evenodd" d="M5.02929688 26.0742188L8.0078125 26.0742188C9.34245459 26.3020845 10.0097656 26.9693955 10.0097656 28.0761719L10.0097656 29.1015625C6.68943652 29.2643237 5.02929688 30.2571523 5.02929688 32.0800781L5.02929688 34.0820312 9.03320312 34.0820312 9.03320312 33.1054688 14.0625 33.1054688 14.0625 35.1074219C14.0625 36.9303477 13.3789131 38.9322808 12.0117188 41.1132812L14.0625 50.1464844C13.1184849 52.9134253 11.4420693 54.9153584 9.03320312 56.1523438L7.03125 56.1523438C4.36196582 54.8177017 3.02734375 52.8157686 3.02734375 50.1464844 4.36198584 44.0592144 5.02929688 40.7226592 5.02929688 40.1367188 1.67641553 38.1184795 0 35.7747529 0 33.1054688 1.75782129 28.8085723 3.43423682 26.4648457 5.02929688 26.0742188zM31.640625 39.1113281L33.6425781 39.1113281C34.9772202 39.1113281 35.6445312 40.1204326 35.6445312 42.1386719L37.6464844 41.1132812 40.6738281 41.1132812C46.0123965 41.7968784 48.6816406 44.807916 48.6816406 50.1464844 48.6816406 58.8379341 44.335981 63.1835938 35.6445312 63.1835938 34.9934863 75.3581338 34.6679688 83.0566245 34.6679688 86.2792969L35.6445312 92.2851562C34.9934863 94.8567837 34.6679688 97.5260278 34.6679688 100.292969L34.6679688 110.302734 31.640625 110.302734C30.3059829 110.302734 29.6386719 109.635423 29.6386719 108.300781L29.6386719 96.2890625C29.6386719 95.6054653 29.9804653 95.2636719 30.6640625 95.2636719 30.6640625 94.612627 30.322269 94.2871094 29.6386719 94.2871094L30.6640625 89.2578125 30.6640625 49.1699219 31.640625 39.1113281zM35.6445312 51.171875L35.6445312 53.1738281 36.6699219 58.1542969C40.6738481 56.8196548 42.6757812 55.4850327 42.6757812 54.1503906L42.6757812 48.1445312C42.6757812 47.1679639 41.6666768 46.1588594 39.6484375 45.1171875 36.9791533 45.8007847 35.6445312 47.8189937 35.6445312 51.171875zM71.2890625 32.0800781C74.6093916 33.4472725 76.2695312 35.790999 76.2695312 39.1113281L78.3203125 39.1113281C78.3203125 35.1074019 80.6477632 33.1054688 85.3027344 33.1054688 88.6556157 35.7422007 90.3320312 42.7571045 90.3320312 54.1503906L88.3300781 55.1757812 87.3046875 55.1757812C85.8072842 55.1757812 84.8144556 53.4993657 84.3261719 50.1464844 84.3261719 49.5605439 84.6516895 46.8912998 85.3027344 42.1386719 84.6516895 40.836582 84.3261719 39.8274775 84.3261719 39.1113281L82.3242188 39.1113281C80.3059795 45.0032847 79.296875 49.3489443 79.296875 52.1484375L74.2675781 52.1484375 74.2675781 51.171875C73.6165332 41.7968281 72.2819111 37.109375 70.2636719 37.109375 68.2779849 40.5273608 67.2851562 43.863916 67.2851562 47.1191406L67.2851562 54.1503906 64.2578125 54.1503906 64.2578125 43.1152344C64.9414097 35.7584268 67.2851362 32.0800781 71.2890625 32.0800781zM145.947266 0C153.98767 3.38543359 158.007812 9.06571533 158.007812 17.0410156L158.007812 22.0703125C158.007812 45.4102729 151.643944 61.7838071 138.916016 71.1914062L137.939453 71.1914062C134.586572 71.1914062 132.910156 61.5072583 132.910156 42.1386719 132.910156 14.7296807 135.5794 1.02539062 140.917969 1.02539062L145.947266 0zM138.916016 32.0800781L138.916016 62.2070312C147.607465 53.4504771 151.953125 38.3952891 151.953125 17.0410156 150.585931 9.68420801 147.916687 6.00585938 143.945312 6.00585938 140.592431 6.00585938 138.916016 14.6971787 138.916016 32.0800781zM184.863281 39.1113281L189.892578 39.1113281C191.22722 39.3391938 191.894531 40.0065049 191.894531 41.1132812L191.894531 46.1425781C189.583322 50.8301016 185.56318 53.1738281 179.833984 53.1738281 179.833984 55.0293062 182.177711 56.6894458 186.865234 58.1542969 188.232429 58.1542969 191.58526 55.8268462 196.923828 51.171875L198.925781 51.171875C199.576826 52.4414126 199.902344 53.4342412 199.902344 54.1503906 197.623687 60.1725562 194.287131 63.1835938 189.892578 63.1835938L184.863281 63.1835938C179.361952 63.1835938 175.683603 59.1797275 173.828125 51.171875 172.493483 51.171875 171.826172 50.504564 171.826172 49.1699219L171.826172 47.1191406C175.895203 47.1191406 178.564447 45.459001 179.833984 42.1386719L184.863281 39.1113281zM181.835938 47.1191406L181.835938 48.1445312 183.837891 48.1445312C184.814458 48.1445312 185.823562 47.1354268 186.865234 45.1171875L186.865234 44.140625 185.888672 44.140625C183.186835 45.1497446 181.835938 46.1425732 181.835938 47.1191406zM229.296875 28.0761719C231.966159 28.0761719 233.968092 29.4107939 235.302734 32.0800781L235.302734 33.1054688 227.294922 33.1054688C221.923801 37.630231 219.238281 42.6432017 219.238281 48.1445312L219.238281 52.1484375C221.386729 56.8359609 224.397767 59.1796875 228.271484 59.1796875 228.271484 58.3333291 230.273417 56.6569136 234.277344 54.1503906L236.279297 54.1503906C237.646491 54.1503906 238.330078 55.1594951 238.330078 57.1777344 238.330078 60.2701978 234.309936 63.2812354 226.269531 66.2109375 217.578082 62.5650859 213.232422 56.2012173 213.232422 47.1191406 217.2689 34.4237646 222.623665 28.0761719 229.296875 28.0761719zM261.376953 39.1113281L266.40625 39.1113281C267.740892 39.3391938 268.408203 40.0065049 268.408203 41.1132812L268.408203 46.1425781C266.096994 50.8301016 262.076852 53.1738281 256.347656 53.1738281 256.347656 55.0293062 258.691383 56.6894458 263.378906 58.1542969 264.746101 58.1542969 268.098932 55.8268462 273.4375 51.171875L275.439453 51.171875C276.090498 52.4414126 276.416016 53.4342412 276.416016 54.1503906 274.137358 60.1725562 270.800803 63.1835938 266.40625 63.1835938L261.376953 63.1835938C255.875624 63.1835938 252.197275 59.1797275 250.341797 51.171875 249.007155 51.171875 248.339844 50.504564 248.339844 49.1699219L248.339844 47.1191406C252.408875 47.1191406 255.078119 45.459001 256.347656 42.1386719L261.376953 39.1113281zM258.349609 47.1191406L258.349609 48.1445312 260.351562 48.1445312C261.32813 48.1445312 262.337234 47.1354268 263.378906 45.1171875L263.378906 44.140625 262.402344 44.140625C259.700507 45.1497446 258.349609 46.1425732 258.349609 47.1191406zM298.046875 32.0800781C301.367204 33.4472725 303.027344 35.790999 303.027344 39.1113281L305.078125 39.1113281C305.078125 35.1074019 307.405576 33.1054688 312.060547 33.1054688 315.413428 35.7422007 317.089844 42.7571045 317.089844 54.1503906L315.087891 55.1757812 314.0625 55.1757812C312.565097 55.1757812 311.572268 53.4993657 311.083984 50.1464844 311.083984 49.5605439 311.409502 46.8912998 312.060547 42.1386719 311.409502 40.836582 311.083984 39.8274775 311.083984 39.1113281L309.082031 39.1113281C307.063792 45.0032847 306.054688 49.3489443 306.054688 52.1484375L301.025391 52.1484375 301.025391 51.171875C300.374346 41.7968281 299.039724 37.109375 297.021484 37.109375 295.035797 40.5273608 294.042969 43.863916 294.042969 47.1191406L294.042969 54.1503906 291.015625 54.1503906 291.015625 43.1152344C291.699222 35.7584268 294.042949 32.0800781 298.046875 32.0800781zM337.353516 11.0351562L340.380859 11.0351562 340.380859 45.1171875 345.361328 44.140625 347.412109 44.140625C352.067081 47.2330884 354.394531 51.2369546 354.394531 56.1523438 353.059889 61.0026284 350.390645 64.6809771 346.386719 67.1875 338.378866 67.1875 334.375 66.1946714 334.375 64.2089844L333.349609 60.15625C334.684251 52.1809497 336.018874 35.8074155 337.353516 11.0351562zM339.355469 56.1523438L339.355469 58.1542969C339.355469 59.1308643 340.364573 60.1399687 342.382812 61.1816406L344.384766 61.1816406C345.426438 61.1816406 346.76106 59.8470186 348.388672 57.1777344L348.388672 55.1757812C348.388672 51.171855 347.05405 49.1699219 344.384766 49.1699219 341.031884 50.0813848 339.355469 52.4088354 339.355469 56.1523438zM379.931641 39.1113281L384.960938 39.1113281C386.29558 39.3391938 386.962891 40.0065049 386.962891 41.1132812L386.962891 46.1425781C384.651681 50.8301016 380.631539 53.1738281 374.902344 53.1738281 374.902344 55.0293062 377.24607 56.6894458 381.933594 58.1542969 383.300788 58.1542969 386.653619 55.8268462 391.992188 51.171875L393.994141 51.171875C394.645186 52.4414126 394.970703 53.4342412 394.970703 54.1503906 392.692046 60.1725562 389.355491 63.1835938 384.960938 63.1835938L379.931641 63.1835938C374.430311 63.1835938 370.751962 59.1797275 368.896484 51.171875 367.561842 51.171875 366.894531 50.504564 366.894531 49.1699219L366.894531 47.1191406C370.963562 47.1191406 373.632806 45.459001 374.902344 42.1386719L379.931641 39.1113281zM376.904297 47.1191406L376.904297 48.1445312 378.90625 48.1445312C379.882817 48.1445312 380.891922 47.1354268 381.933594 45.1171875L381.933594 44.140625 380.957031 44.140625C378.255195 45.1497446 376.904297 46.1425732 376.904297 47.1191406zM422.119141 38.1347656L423.144531 38.1347656 423.144531 40.1367188C419.108053 43.8151226 417.089844 49.4954043 417.089844 57.1777344L417.089844 64.2089844 413.085938 64.2089844 409.082031 40.1367188 411.083984 39.1113281 413.085938 39.1113281 413.085938 44.140625 415.087891 44.140625C415.087891 40.1366987 417.431617 38.1347656 422.119141 38.1347656zM471.582031 31.1035156L475.585938 31.1035156C478.255222 32.1777397 479.589844 34.5214663 479.589844 38.1347656L479.589844 42.1386719C478.938799 46.1425981 478.613281 49.1536357 478.613281 51.171875 480.273446 51.171875 484.619105 51.839186 491.650391 53.1738281L491.650391 57.1777344 487.597656 58.1542969C481.184864 56.8196548 476.513687 56.1523438 473.583984 56.1523438 471.370432 57.4869858 469.368499 58.1542969 467.578125 58.1542969L466.552734 58.1542969C465.218092 58.1542969 464.550781 57.4869858 464.550781 56.1523438L464.550781 53.1738281C464.550781 52.0344995 467.220025 50.358084 472.558594 48.1445312 473.893236 45.7031128 474.560547 43.0338687 474.560547 40.1367188L474.560547 37.109375C474.560547 35.7747329 473.567718 35.1074219 471.582031 35.1074219 468.22915 37.1256611 465.885423 38.1347656 464.550781 38.1347656L464.550781 37.109375C464.550781 33.1054487 466.894508 31.1035156 471.582031 31.1035156zM510.742188 31.1035156C512.760427 31.5266948 513.769531 34.195939 513.769531 39.1113281L513.769531 57.1777344C513.769531 58.5123765 513.10222 59.1796875 511.767578 59.1796875L509.765625 59.1796875C508.235669 59.1796875 507.226565 57.503272 506.738281 54.1503906 507.128908 38.7857305 508.46353 31.1035156 510.742188 31.1035156zM540.869141 35.1074219L541.894531 35.1074219 541.894531 38.1347656C538.671859 38.1347656 536.669926 40.1366987 535.888672 44.140625 541.910837 47.7864766 544.921875 52.7994473 544.921875 59.1796875 542.936188 63.8672109 539.92515 66.2109375 535.888672 66.2109375L531.884766 66.2109375C530.908198 66.2109375 529.899094 65.201833 528.857422 63.1835938L528.857422 61.1816406C529.052735 59.8469985 529.720046 59.1796875 530.859375 59.1796875L536.865234 60.15625C538.199876 60.15625 538.867188 59.488939 538.867188 58.1542969L538.867188 57.1777344C538.867188 54.9641816 536.197943 50.618522 530.859375 44.140625 530.859375 39.0299224 534.19593 36.0188848 540.869141 35.1074219zM567.089844 19.0429688L570.117188 19.0429688 570.117188 28.0761719 574.121094 29.1015625 574.121094 32.0800781C574.121094 33.1868545 571.777367 34.195959 567.089844 35.1074219 567.089844 38.3300942 566.422533 44.3521694 565.087891 53.1738281 566.357428 59.1959937 567.69205 62.2070312 569.091797 62.2070312L570.117188 62.2070312 580.126953 59.1796875C578.824863 65.201853 575.146515 68.2128906 569.091797 68.2128906 563.753229 67.073562 561.083984 63.0534199 561.083984 56.1523438L561.083984 52.1484375C561.083984 46.126272 561.751295 40.4459902 563.085938 35.1074219 560.416653 34.0983022 559.082031 33.0891978 559.082031 32.0800781 564.029973 28.4667788 566.699217 24.1211191 567.089844 19.0429688zM7.03125 144.128906L13.0371094 144.128906C14.3717515 144.32422 15.0390625 144.991531 15.0390625 146.130859 15.0390625 148.800144 14.3717515 153.145803 13.0371094 159.167969 15.7063936 159.167969 17.0410156 159.83528 17.0410156 161.169922L17.0410156 162.146484C13.6881343 163.839201 12.0117188 167.192032 12.0117188 172.205078L10.0097656 173.181641 6.00585938 173.181641 6.00585938 164.148438C4.67121729 164.148438 4.00390625 163.481126 4.00390625 162.146484L4.00390625 161.169922C6.67319043 159.412101 8.0078125 157.735685 8.0078125 156.140625 9.34245459 152.755191 10.0097656 150.411465 10.0097656 149.109375L7.03125 149.109375 0 148.132812 0 145.105469 7.03125 144.128906zM41.8945312 145.105469L42.9199219 145.105469C44.254564 145.333334 44.921875 146.000646 44.921875 147.107422 41.5689937 154.138707 39.8925781 160.160782 39.8925781 165.173828L44.921875 165.173828C46.2239648 165.173828 47.5585869 167.175761 48.9257812 171.179688 47.5585869 175.183614 46.2239648 177.185547 44.921875 177.185547L39.8925781 177.185547C35.8886519 174.809233 33.8867188 171.130884 33.8867188 166.150391 36.6862119 152.120373 39.3554561 145.105469 41.8945312 145.105469zM66.9433594 148.132812L70.9472656 148.132812C72.3470122 148.425783 73.6979102 150.085922 75 153.113281L73.9746094 157.166016C75.9928486 160.388688 77.0019531 164.067037 77.0019531 168.201172 77.0019531 172.009785 73.3236045 174.337235 65.9667969 175.183594L63.9648438 172.205078C63.9648438 170.447257 66.2922944 169.112635 70.9472656 168.201172L70.9472656 165.173828C70.9472656 161.820947 69.954437 160.144531 67.96875 160.144531L67.96875 157.166016 69.9707031 154.138672 69.9707031 152.136719C67.9524639 152.136719 66.9433594 151.794925 66.9433594 151.111328L64.9414062 152.136719 60.9375 152.136719 60.9375 151.111328C61.6210972 149.125641 63.6230303 148.132812 66.9433594 148.132812zM132.03125 112C137.1094 112 140.104162 116.687453 141.015625 126.0625 141.015625 131.921904 136.002654 137.260393 125.976562 142.078125 125.325518 151.453172 124.658207 156.140625 123.974609 156.140625L125 161.169922 125 185.242188C125 186.57683 124.332689 187.244141 122.998047 187.244141L119.970703 187.244141C119.156897 171.619062 118.489586 162.260432 117.96875 159.167969L118.994141 157.166016C118.994141 156.482418 118.652347 156.140625 117.96875 156.140625L118.994141 151.111328 118.994141 136.072266C118.994141 120.024008 123.3398 112 132.03125 112zM125.976562 128.064453L125.976562 133.09375 127.978516 133.09375C132.014994 131.401033 134.033203 128.715513 134.033203 125.037109L134.033203 122.058594C134.033203 121.082026 133.024099 120.072922 131.005859 119.03125L129.980469 119.03125C128.515618 119.03125 127.180996 122.042288 125.976562 128.064453zM156.201172 156.140625L160.205078 156.140625C164.892602 156.140625 167.236328 160.828078 167.236328 170.203125 169.645194 175.05341 171.988921 178.731758 174.267578 181.238281L174.267578 183.240234C174.267578 184.574876 173.600267 185.242188 172.265625 185.242188L170.214844 185.242188C165.559873 182.703112 163.232422 179.692075 163.232422 176.208984L162.207031 176.208984C162.207031 178.292328 160.530616 180.294261 157.177734 182.214844L155.175781 182.214844C149.837213 182.214844 147.167969 179.203806 147.167969 173.181641L147.167969 172.205078C147.167969 166.052704 150.179006 160.697939 156.201172 156.140625zM152.197266 173.181641C152.848311 174.48373 153.173828 175.492835 153.173828 176.208984L156.201172 176.208984C158.870456 167.940714 160.205078 162.927743 160.205078 161.169922L158.203125 161.169922C154.199199 164.815773 152.197266 168.81964 152.197266 173.181641zM199.511719 157.166016L200.537109 157.166016 200.537109 159.167969C196.500631 162.846373 194.482422 168.526654 194.482422 176.208984L194.482422 183.240234 190.478516 183.240234 186.474609 159.167969 188.476562 158.142578 190.478516 158.142578 190.478516 163.171875 192.480469 163.171875C192.480469 159.167949 194.824195 157.166016 199.511719 157.166016zM220.019531 134.070312L220.996094 134.070312C220.345049 148.100331 220.019531 157.800754 220.019531 163.171875 222.493502 162.846353 225.50454 160.502626 229.052734 156.140625L230.029297 156.140625 230.029297 159.167969 226.025391 164.148438C230.029317 170.170603 233.040354 173.181641 235.058594 173.181641L235.058594 177.185547 231.054688 177.185547 222.021484 167.175781 218.994141 167.175781 218.994141 179.1875C218.994141 180.554694 218.32683 181.238281 216.992188 181.238281 215.657545 181.238281 214.990234 180.554694 214.990234 179.1875 215.673832 149.109225 217.350247 134.070312 220.019531 134.070312zM287.597656 112C292.675807 112 295.670568 116.687453 296.582031 126.0625 296.582031 131.921904 291.569061 137.260393 281.542969 142.078125 280.891924 151.453172 280.224613 156.140625 279.541016 156.140625L280.566406 161.169922 280.566406 185.242188C280.566406 186.57683 279.899095 187.244141 278.564453 187.244141L275.537109 187.244141C274.723303 171.619062 274.055992 162.260432 273.535156 159.167969L274.560547 157.166016C274.560547 156.482418 274.218753 156.140625 273.535156 156.140625L274.560547 151.111328 274.560547 136.072266C274.560547 120.024008 278.906207 112 287.597656 112zM281.542969 128.064453L281.542969 133.09375 283.544922 133.09375C287.5814 131.401033 289.599609 128.715513 289.599609 125.037109L289.599609 122.058594C289.599609 121.082026 288.590505 120.072922 286.572266 119.03125L285.546875 119.03125C284.082024 119.03125 282.747402 122.042288 281.542969 128.064453zM307.8125 127.039062C309.147142 127.039062 309.814453 128.048167 309.814453 130.066406 309.163408 161.804846 308.837891 180.196589 308.837891 185.242188L306.835938 186.21875 305.810547 186.21875C304.475905 186.21875 303.808594 185.225921 303.808594 183.240234 303.808594 177.511039 304.475905 159.119296 305.810547 128.064453L307.8125 127.039062zM334.814453 156.140625L338.818359 156.140625C343.505883 156.140625 345.849609 160.828078 345.849609 170.203125 348.258476 175.05341 350.602202 178.731758 352.880859 181.238281L352.880859 183.240234C352.880859 184.574876 352.213548 185.242188 350.878906 185.242188L348.828125 185.242188C344.173154 182.703112 341.845703 179.692075 341.845703 176.208984L340.820312 176.208984C340.820312 178.292328 339.143897 180.294261 335.791016 182.214844L333.789062 182.214844C328.450494 182.214844 325.78125 179.203806 325.78125 173.181641L325.78125 172.205078C325.78125 166.052704 328.792288 160.697939 334.814453 156.140625zM330.810547 173.181641C331.461592 174.48373 331.787109 175.492835 331.787109 176.208984L334.814453 176.208984C337.483737 167.940714 338.818359 162.927743 338.818359 161.169922L336.816406 161.169922C332.81248 164.815773 330.810547 168.81964 330.810547 173.181641zM380.371094 147.107422C383.040378 147.107422 385.042311 148.442044 386.376953 151.111328L386.376953 152.136719 378.369141 152.136719C372.99802 156.661481 370.3125 161.674452 370.3125 167.175781L370.3125 171.179688C372.460948 175.867211 375.471986 178.210938 379.345703 178.210938 379.345703 177.364579 381.347636 175.688164 385.351562 173.181641L387.353516 173.181641C388.72071 173.181641 389.404297 174.190745 389.404297 176.208984 389.404297 179.301448 385.384155 182.312485 377.34375 185.242188 368.6523 181.596336 364.306641 175.232467 364.306641 166.150391 368.343119 153.455015 373.697883 147.107422 380.371094 147.107422zM412.451172 158.142578L417.480469 158.142578C418.815111 158.370444 419.482422 159.037755 419.482422 160.144531L419.482422 165.173828C417.171212 169.861352 413.15107 172.205078 407.421875 172.205078 407.421875 174.060556 409.765602 175.720696 414.453125 177.185547 415.820319 177.185547 419.17315 174.858096 424.511719 170.203125L426.513672 170.203125C427.164717 171.472663 427.490234 172.465491 427.490234 173.181641 425.211577 179.203806 421.875022 182.214844 417.480469 182.214844L412.451172 182.214844C406.949842 182.214844 403.271494 178.210978 401.416016 170.203125 400.081374 170.203125 399.414062 169.535814 399.414062 168.201172L399.414062 166.150391C403.483093 166.150391 406.152337 164.490251 407.421875 161.169922L412.451172 158.142578zM409.423828 166.150391L409.423828 167.175781 411.425781 167.175781C412.402349 167.175781 413.411453 166.166677 414.453125 164.148438L414.453125 163.171875 413.476562 163.171875C410.774726 164.180995 409.423828 165.173823 409.423828 166.150391zM451.660156 170.203125L453.662109 170.203125 453.662109 172.205078C452.620437 179.561886 450.944022 183.240234 448.632812 183.240234L446.630859 183.240234C448.160815 174.548785 449.83723 170.203125 451.660156 170.203125zM511.181641 156.140625L515.185547 156.140625C519.87307 156.140625 522.216797 160.828078 522.216797 170.203125 524.625663 175.05341 526.96939 178.731758 529.248047 181.238281L529.248047 183.240234C529.248047 184.574876 528.580736 185.242188 527.246094 185.242188L525.195312 185.242188C520.540341 182.703112 518.212891 179.692075 518.212891 176.208984L517.1875 176.208984C517.1875 178.292328 515.511084 180.294261 512.158203 182.214844L510.15625 182.214844C504.817682 182.214844 502.148438 179.203806 502.148438 173.181641L502.148438 172.205078C502.148438 166.052704 505.159475 160.697939 511.181641 156.140625zM507.177734 173.181641C507.828779 174.48373 508.154297 175.492835 508.154297 176.208984L511.181641 176.208984C513.850925 167.940714 515.185547 162.927743 515.185547 161.169922L513.183594 161.169922C509.179667 164.815773 507.177734 168.81964 507.177734 173.181641zM543.701172 158.142578L545.703125 158.142578C547.037767 158.142578 547.705078 159.151683 547.705078 161.169922L549.707031 160.144531 552.734375 160.144531C558.072943 160.828128 560.742188 163.839166 560.742188 169.177734 560.742188 177.869184 556.396528 182.214844 547.705078 182.214844 547.054033 194.389384 546.728516 202.087875 546.728516 205.310547L547.705078 211.316406C547.054033 213.888034 546.728516 216.557278 546.728516 219.324219L546.728516 229.333984 543.701172 229.333984C542.36653 229.333984 541.699219 228.666673 541.699219 227.332031L541.699219 215.320312C541.699219 214.636715 542.041012 214.294922 542.724609 214.294922 542.724609 213.643877 542.382816 213.318359 541.699219 213.318359L542.724609 208.289062 542.724609 168.201172 543.701172 158.142578zM547.705078 170.203125L547.705078 172.205078 548.730469 177.185547C552.734395 175.850905 554.736328 174.516283 554.736328 173.181641L554.736328 167.175781C554.736328 166.199214 553.727224 165.190109 551.708984 164.148438 549.0397 164.832035 547.705078 166.850244 547.705078 170.203125zM583.251953 138.074219L586.279297 138.074219 586.279297 147.107422 590.283203 148.132812 590.283203 151.111328C590.283203 152.218104 587.939477 153.227209 583.251953 154.138672 583.251953 157.361344 582.584642 163.383419 581.25 172.205078 582.519538 178.227244 583.85416 181.238281 585.253906 181.238281L586.279297 181.238281 596.289062 178.210938C594.986973 184.233103 591.308624 187.244141 585.253906 187.244141 579.915338 186.104812 577.246094 182.08467 577.246094 175.183594L577.246094 171.179688C577.246094 165.157522 577.913405 159.47724 579.248047 154.138672 576.578763 153.129552 575.244141 152.120448 575.244141 151.111328 580.192082 147.498029 582.861326 143.152369 583.251953 138.074219zM636.474609 148.132812L640.478516 148.132812C641.878262 148.425783 643.22916 150.085922 644.53125 153.113281L643.505859 157.166016C645.524099 160.388688 646.533203 164.067037 646.533203 168.201172 646.533203 172.009785 642.854854 174.337235 635.498047 175.183594L633.496094 172.205078C633.496094 170.447257 635.823544 169.112635 640.478516 168.201172L640.478516 165.173828C640.478516 161.820947 639.485687 160.144531 637.5 160.144531L637.5 157.166016 639.501953 154.138672 639.501953 152.136719C637.483714 152.136719 636.474609 151.794925 636.474609 151.111328L634.472656 152.136719 630.46875 152.136719 630.46875 151.111328C631.152347 149.125641 633.15428 148.132812 636.474609 148.132812zM662.890625 118.005859L663.916016 118.005859C665.901703 118.005859 666.894531 124.027935 666.894531 136.072266L666.894531 165.173828 667.919922 175.183594 670.898438 175.183594 677.929688 174.207031 679.931641 177.185547C679.931641 178.38998 677.587914 180.066396 672.900391 182.214844 665.576135 182.214844 661.914062 178.536495 661.914062 171.179688 661.230465 163.10673 660.888672 154.089894 660.888672 144.128906L660.888672 120.056641C661.083985 118.689446 661.751296 118.005859 662.890625 118.005859zM700.292969 170.203125L702.294922 170.203125 702.294922 172.205078C701.25325 179.561886 699.576834 183.240234 697.265625 183.240234L695.263672 183.240234C696.793627 174.548785 698.470043 170.203125 700.292969 170.203125zM765.136719 125.037109L770.117188 125.037109C771.158859 125.037109 772.509757 126.371731 774.169922 129.041016L774.169922 132.068359C774.169922 134.477226 772.819024 137.14647 770.117188 140.076172 778.808637 143.982441 783.154297 151.013621 783.154297 161.169922L783.154297 163.171875C780.582669 179.220132 772.558661 187.244141 759.082031 187.244141 754.329403 187.895186 751.660159 188.220703 751.074219 188.220703 749.739577 185.323553 749.072266 179.985065 749.072266 172.205078 749.072266 149.060431 753.417925 134.005243 762.109375 127.039062L765.136719 125.037109zM762.109375 137.097656L763.134766 137.097656C763.134766 136.707029 764.469388 135.030614 767.138672 132.068359L767.138672 131.091797C764.697253 132.328782 763.020838 134.330715 762.109375 137.097656zM758.105469 146.130859C756.087229 153.715533 755.078125 163.399681 755.078125 175.183594L755.078125 180.212891 759.082031 180.212891C769.79172 178.259756 775.146484 172.579474 775.146484 163.171875L775.146484 159.167969C775.146484 151.973922 771.809929 147.628263 765.136719 146.130859L758.105469 146.130859zM800 126.0625C801.334642 126.0625 802.669264 130.40816 804.003906 139.099609L813.037109 127.039062 815.039062 127.039062C816.373705 127.039062 817.041016 128.048167 817.041016 130.066406L807.03125 146.130859C811.035176 148.8978 815.039042 159.591053 819.042969 178.210938L819.042969 186.21875 815.039062 186.21875C810.5143 162.16264 806.510434 150.134766 803.027344 150.134766 803.678389 153.09702 804.671217 163.464755 806.005859 181.238281 805.029292 183.907565 804.036463 185.242188 803.027344 185.242188L800 185.242188C800 184.526038 799.674482 183.516934 799.023438 182.214844 799.023438 180.782545 799.348955 177.104196 800 171.179688 798.665358 151.029847 797.998047 136.316453 797.998047 127.039062L800 126.0625zM15.0390625 236.978516C16.3737046 237.206381 17.0410156 237.889968 17.0410156 239.029297L17.0410156 241.03125C17.0410156 242.365892 16.048187 243.033203 14.0625 243.033203 14.0625 243.684248 14.3880176 244.009766 15.0390625 244.009766L14.0625 248.013672C14.0625 259.699928 13.3789131 275.422427 12.0117188 295.181641L17.0410156 295.181641C18.3756577 295.376954 19.0429688 296.044265 19.0429688 297.183594L19.0429688 299.185547C18.3919238 301.203786 16.3899907 302.212891 13.0371094 302.212891L7.03125 302.212891C3.41795068 302.212891 1.07422412 300.861993 0 298.160156 0 297.085932 2.00193311 295.75131 6.00585938 294.15625 6.68945654 292.984369 7.03125 291.649747 7.03125 290.152344 7.03125 280.289013 7.69856104 264.58279 9.03320312 243.033203L7.03125 243.033203 7.03125 240.005859C7.4544292 237.98762 10.1236733 236.978516 15.0390625 236.978516zM48.5351562 234L50.5371094 234C51.8717515 234.195313 52.5390625 234.862625 52.5390625 236.001953L52.5390625 238.003906C52.5390625 239.338548 51.8717515 240.005859 50.5371094 240.005859 49.2350195 239.354814 48.225915 239.029297 47.5097656 239.029297 44.1894365 241.503268 42.5292969 254.198453 42.5292969 277.115234 45.1985811 277.440757 46.5332031 278.449861 46.5332031 280.142578 46.5332031 281.314459 44.53127 282.974599 40.5273438 285.123047 38.7369702 310.904426 35.0586216 325.61782 29.4921875 329.263672L28.4667969 329.263672C27.1321548 329.263672 26.4648438 328.596361 26.4648438 327.261719L26.4648438 326.285156C29.9479341 326.285156 32.6171782 316.584732 34.4726562 297.183594L34.4726562 290.152344 35.4980469 285.123047C32.1451655 284.276688 30.46875 283.28386 30.46875 282.144531L30.46875 281.119141C34.4726763 278.93814 36.4746094 275.601585 36.4746094 271.109375 36.4746094 246.369668 40.4947515 234 48.5351562 234zM88.4765625 273.111328L89.453125 273.111328C91.4713643 273.111328 93.1477798 280.126232 94.4824219 294.15625 98.0631689 291.845041 102.067035 286.164759 106.494141 277.115234 107.666021 276.464189 109.016919 276.138672 110.546875 276.138672L112.548828 279.117188C112.548828 319.905152 104.52482 340.298828 88.4765625 340.298828 87.4999951 340.298828 86.4908906 339.306 85.4492188 337.320312L85.4492188 336.294922C85.481771 335.025384 89.1601196 333.023451 96.484375 330.289062 102.506541 316.096283 105.517578 303.726615 105.517578 293.179688L97.4609375 300.210938 92.4804688 300.210938C88.4765425 300.210938 86.4746094 291.503342 86.4746094 274.087891L88.4765625 273.111328zM142.529297 276.138672C148.616567 276.138672 152.620433 281.151643 154.541016 291.177734 152.815747 300.520229 149.137398 305.191406 143.505859 305.191406L141.503906 305.191406C132.812457 302.78254 128.466797 298.43688 128.466797 292.154297L128.466797 290.152344C131.168633 280.809849 135.856086 276.138672 142.529297 276.138672zM133.496094 292.154297C134.277348 295.24676 137.288385 297.93228 142.529297 300.210938 144.287118 299.755206 145.947258 298.078791 147.509766 295.181641L147.509766 289.175781C147.509766 285.8229 145.507833 283.479173 141.503906 282.144531L141.503906 281.119141C136.165338 283.788425 133.496094 287.466773 133.496094 292.154297zM171.826172 270.083984L174.804688 270.083984 174.804688 284.146484 175.830078 289.175781 176.806641 289.175781C180.810567 281.233033 182.8125 275.536476 182.8125 272.085938L186.865234 272.085938C186.865234 279.052118 188.867167 285.741504 192.871094 292.154297L192.871094 293.179688C192.871094 294.51433 192.203783 295.181641 190.869141 295.181641L188.867188 295.181641C186.197903 294.074864 184.863281 291.731138 184.863281 288.150391L182.8125 288.150391C181.21744 294.172556 178.222678 297.183594 173.828125 297.183594 171.809886 294.742175 170.800781 292.398449 170.800781 290.152344L170.800781 275.113281 171.826172 270.083984zM249.462891 279.117188C254.150414 280.02865 256.494141 281.363272 256.494141 283.121094L255.46875 285.123047C255.46875 285.839196 255.810543 286.848301 256.494141 288.150391 254.931633 312.239053 253.255217 324.283203 251.464844 324.283203L252.441406 326.285156C246.582002 335.529994 241.243514 341.210276 236.425781 343.326172L233.398438 343.326172C230.729153 342.219396 229.394531 339.875669 229.394531 336.294922 231.901054 328.287069 237.581336 324.283203 246.435547 324.283203 248.453786 316.438112 249.788408 308.07231 250.439453 299.185547 247.021467 301.203786 243.684912 302.212891 240.429688 302.212891L239.404297 302.212891C236.083968 300.878249 234.423828 298.534522 234.423828 295.181641L234.423828 292.154297C234.423828 285.123012 239.436799 280.777352 249.462891 279.117188zM238.427734 295.181641C240.055347 296.516283 241.389969 297.183594 242.431641 297.183594 247.770209 294.709623 250.439453 290.02217 250.439453 283.121094L249.462891 283.121094C242.952441 283.121094 239.274093 287.141236 238.427734 295.181641zM235.400391 336.294922L236.425781 336.294922C239.322931 334.732414 240.983071 333.055999 241.40625 331.265625L240.429688 331.265625C239.518225 331.265625 237.841809 332.942041 235.400391 336.294922zM284.521484 277.115234L289.550781 277.115234C290.885423 277.3431 291.552734 278.010411 291.552734 279.117188L291.552734 284.146484C289.241525 288.834008 285.221383 291.177734 279.492188 291.177734 279.492188 293.033212 281.835914 294.693352 286.523438 296.158203 287.890632 296.158203 291.243463 293.830752 296.582031 289.175781L298.583984 289.175781C299.235029 290.445319 299.560547 291.438147 299.560547 292.154297 297.28189 298.176462 293.945334 301.1875 289.550781 301.1875L284.521484 301.1875C279.020155 301.1875 275.341806 297.183634 273.486328 289.175781 272.151686 289.175781 271.484375 288.50847 271.484375 287.173828L271.484375 285.123047C275.553406 285.123047 278.22265 283.462907 279.492188 280.142578L284.521484 277.115234zM281.494141 285.123047L281.494141 286.148438 283.496094 286.148438C284.472661 286.148438 285.481766 285.139333 286.523438 283.121094L286.523438 282.144531 285.546875 282.144531C282.845039 283.153651 281.494141 284.146479 281.494141 285.123047zM321.09375 257.046875L324.121094 257.046875 324.121094 266.080078 328.125 267.105469 328.125 270.083984C328.125 271.190761 325.781273 272.199865 321.09375 273.111328 321.09375 276.334 320.426439 282.356076 319.091797 291.177734 320.361334 297.1999 321.695957 300.210938 323.095703 300.210938L324.121094 300.210938 334.130859 297.183594C332.82877 303.205759 329.150421 306.216797 323.095703 306.216797 317.757135 305.077468 315.087891 301.057326 315.087891 294.15625L315.087891 290.152344C315.087891 284.130178 315.755202 278.449896 317.089844 273.111328 314.42056 272.102208 313.085938 271.093104 313.085938 270.083984 318.033879 266.470685 320.703123 262.125025 321.09375 257.046875zM375 246.011719C376.334642 246.011719 377.001953 247.020823 377.001953 249.039062 376.350908 280.777502 376.025391 299.169246 376.025391 304.214844L374.023438 305.191406 372.998047 305.191406C371.663405 305.191406 370.996094 304.198578 370.996094 302.212891 370.996094 296.483695 371.663405 278.091952 372.998047 247.037109L375 246.011719zM406.982422 276.138672C413.069692 276.138672 417.073558 281.151643 418.994141 291.177734 417.268872 300.520229 413.590523 305.191406 407.958984 305.191406L405.957031 305.191406C397.265582 302.78254 392.919922 298.43688 392.919922 292.154297L392.919922 290.152344C395.621758 280.809849 400.309211 276.138672 406.982422 276.138672zM397.949219 292.154297C398.730473 295.24676 401.74151 297.93228 406.982422 300.210938 408.740243 299.755206 410.400383 298.078791 411.962891 295.181641L411.962891 289.175781C411.962891 285.8229 409.960958 283.479173 405.957031 282.144531L405.957031 281.119141C400.618463 283.788425 397.949219 287.466773 397.949219 292.154297zM444.580078 273.111328L445.605469 273.111328 445.605469 276.138672C442.382796 276.138672 440.380863 278.140605 439.599609 282.144531 445.621775 285.790383 448.632812 290.803354 448.632812 297.183594 446.647125 301.871117 443.636088 304.214844 439.599609 304.214844L435.595703 304.214844C434.619136 304.214844 433.610031 303.205739 432.568359 301.1875L432.568359 299.185547C432.763673 297.850905 433.430984 297.183594 434.570312 297.183594L440.576172 298.160156C441.910814 298.160156 442.578125 297.492845 442.578125 296.158203L442.578125 295.181641C442.578125 292.968088 439.908881 288.622428 434.570312 282.144531 434.570312 277.033829 437.906868 274.022791 444.580078 273.111328zM470.800781 257.046875L473.828125 257.046875 473.828125 266.080078 477.832031 267.105469 477.832031 270.083984C477.832031 271.190761 475.488305 272.199865 470.800781 273.111328 470.800781 276.334 470.13347 282.356076 468.798828 291.177734 470.068366 297.1999 471.402988 300.210938 472.802734 300.210938L473.828125 300.210938 483.837891 297.183594C482.535801 303.205759 478.857452 306.216797 472.802734 306.216797 467.464166 305.077468 464.794922 301.057326 464.794922 294.15625L464.794922 290.152344C464.794922 284.130178 465.462233 278.449896 466.796875 273.111328 464.127591 272.102208 462.792969 271.093104 462.792969 270.083984 467.74091 266.470685 470.410154 262.125025 470.800781 257.046875zM502.734375 289.175781L504.736328 289.175781 504.736328 291.177734C503.694656 298.534542 502.018241 302.212891 499.707031 302.212891L497.705078 302.212891C499.235034 293.521441 500.911449 289.175781 502.734375 289.175781zM568.408203 266.080078C571.077487 266.080078 573.07942 267.4147 574.414062 270.083984L574.414062 271.109375 566.40625 271.109375C561.035129 275.634137 558.349609 280.647108 558.349609 286.148438L558.349609 290.152344C560.498058 294.839867 563.509095 297.183594 567.382812 297.183594 567.382812 296.337235 569.384746 294.66082 573.388672 292.154297L575.390625 292.154297C576.757819 292.154297 577.441406 293.163401 577.441406 295.181641 577.441406 298.274104 573.421264 301.285142 565.380859 304.214844 556.68941 300.568992 552.34375 294.205124 552.34375 285.123047 556.380229 272.427671 561.734993 266.080078 568.408203 266.080078zM597.851562 275.113281L601.855469 275.113281C606.542992 275.113281 608.886719 279.800734 608.886719 289.175781 611.295585 294.026066 613.639312 297.704415 615.917969 300.210938L615.917969 302.212891C615.917969 303.547533 615.250658 304.214844 613.916016 304.214844L611.865234 304.214844C607.210263 301.675769 604.882812 298.664731 604.882812 295.181641L603.857422 295.181641C603.857422 297.264984 602.181006 299.266917 598.828125 301.1875L596.826172 301.1875C591.487604 301.1875 588.818359 298.176462 588.818359 292.154297L588.818359 291.177734C588.818359 285.02536 591.829397 279.670596 597.851562 275.113281zM593.847656 292.154297C594.498701 293.456387 594.824219 294.465491 594.824219 295.181641L597.851562 295.181641C600.520847 286.91337 601.855469 281.900399 601.855469 280.142578L599.853516 280.142578C595.849589 283.78843 593.847656 287.792296 593.847656 292.154297zM633.300781 246.011719C634.635423 246.011719 635.302734 247.020823 635.302734 249.039062 634.651689 280.777502 634.326172 299.169246 634.326172 304.214844L632.324219 305.191406 631.298828 305.191406C629.964186 305.191406 629.296875 304.198578 629.296875 302.212891 629.296875 296.483695 629.964186 278.091952 631.298828 247.037109L633.300781 246.011719zM656.347656 246.011719C657.682298 246.011719 658.349609 247.020823 658.349609 249.039062 657.698564 280.777502 657.373047 299.169246 657.373047 304.214844L655.371094 305.191406 654.345703 305.191406C653.011061 305.191406 652.34375 304.198578 652.34375 302.212891 652.34375 296.483695 653.011061 278.091952 654.345703 247.037109L656.347656 246.011719zM715.185547 276.138672C721.272817 276.138672 725.276683 281.151643 727.197266 291.177734 725.471997 300.520229 721.793648 305.191406 716.162109 305.191406L714.160156 305.191406C705.468707 302.78254 701.123047 298.43688 701.123047 292.154297L701.123047 290.152344C703.824883 280.809849 708.512336 276.138672 715.185547 276.138672zM706.152344 292.154297C706.933598 295.24676 709.944635 297.93228 715.185547 300.210938 716.943368 299.755206 718.603508 298.078791 720.166016 295.181641L720.166016 289.175781C720.166016 285.8229 718.164083 283.479173 714.160156 282.144531L714.160156 281.119141C708.821588 283.788425 706.152344 287.466773 706.152344 292.154297zM755.371094 276.138672L756.396484 276.138672 756.396484 278.140625C752.360006 281.819029 750.341797 287.499311 750.341797 295.181641L750.341797 302.212891 746.337891 302.212891 742.333984 278.140625 744.335938 277.115234 746.337891 277.115234 746.337891 282.144531 748.339844 282.144531C748.339844 278.140605 750.68357 276.138672 755.371094 276.138672zM804.199219 257.046875L807.226562 257.046875 807.226562 266.080078 811.230469 267.105469 811.230469 270.083984C811.230469 271.190761 808.886742 272.199865 804.199219 273.111328 804.199219 276.334 803.531908 282.356076 802.197266 291.177734 803.466803 297.1999 804.801425 300.210938 806.201172 300.210938L807.226562 300.210938 817.236328 297.183594C815.934238 303.205759 812.25589 306.216797 806.201172 306.216797 800.862604 305.077468 798.193359 301.057326 798.193359 294.15625L798.193359 290.152344C798.193359 284.130178 798.86067 278.449896 800.195312 273.111328 797.526028 272.102208 796.191406 271.093104 796.191406 270.083984 801.139348 266.470685 803.808592 262.125025 804.199219 257.046875zM837.841797 277.115234L842.871094 277.115234C844.205736 277.3431 844.873047 278.010411 844.873047 279.117188L844.873047 284.146484C842.561837 288.834008 838.541695 291.177734 832.8125 291.177734 832.8125 293.033212 835.156227 294.693352 839.84375 296.158203 841.210944 296.158203 844.563775 293.830752 849.902344 289.175781L851.904297 289.175781C852.555342 290.445319 852.880859 291.438147 852.880859 292.154297 850.602202 298.176462 847.265647 301.1875 842.871094 301.1875L837.841797 301.1875C832.340467 301.1875 828.662119 297.183634 826.806641 289.175781 825.471999 289.175781 824.804688 288.50847 824.804688 287.173828L824.804688 285.123047C828.873718 285.123047 831.542962 283.462907 832.8125 280.142578L837.841797 277.115234zM834.814453 285.123047L834.814453 286.148438 836.816406 286.148438C837.792974 286.148438 838.802078 285.139333 839.84375 283.121094L839.84375 282.144531 838.867188 282.144531C836.165351 283.153651 834.814453 284.146479 834.814453 285.123047zM866.650391 265.103516L868.652344 265.103516 877.685547 274.087891C877.685547 273.241532 880.354791 270.572288 885.693359 266.080078L886.71875 266.080078 886.71875 268.082031 880.712891 277.115234 880.712891 279.117188 887.695312 289.175781 887.695312 291.177734C887.695312 292.512376 887.028001 293.179688 885.693359 293.179688 884.326165 293.114583 881.315127 289.761752 876.660156 283.121094L875.683594 283.121094C875.683594 283.967452 873.01435 286.652972 867.675781 291.177734 866.699214 291.177734 865.690109 290.16863 864.648438 288.150391 864.648438 287.401689 867.659475 284.065134 873.681641 278.140625L866.650391 267.105469 866.650391 265.103516zM910.058594 257.046875L913.085938 257.046875 913.085938 266.080078 917.089844 267.105469 917.089844 270.083984C917.089844 271.190761 914.746117 272.199865 910.058594 273.111328 910.058594 276.334 909.391283 282.356076 908.056641 291.177734 909.326178 297.1999 910.6608 300.210938 912.060547 300.210938L913.085938 300.210938 923.095703 297.183594C921.793613 303.205759 918.115265 306.216797 912.060547 306.216797 906.721979 305.077468 904.052734 301.057326 904.052734 294.15625L904.052734 290.152344C904.052734 284.130178 904.720045 278.449896 906.054688 273.111328 903.385403 272.102208 902.050781 271.093104 902.050781 270.083984 906.998723 266.470685 909.667967 262.125025 910.058594 257.046875zM18.6035156 349.972656C23.681666 349.972656 26.6764277 354.660109 27.5878906 364.035156 27.5878906 369.894561 22.5749199 375.233049 12.5488281 380.050781 11.8977832 389.425828 11.2304722 394.113281 10.546875 394.113281L11.5722656 399.142578 11.5722656 423.214844C11.5722656 424.549486 10.9049546 425.216797 9.5703125 425.216797L6.54296875 425.216797C5.7291626 409.591719 5.06185156 400.233088 4.54101562 397.140625L5.56640625 395.138672C5.56640625 394.455075 5.22461279 394.113281 4.54101562 394.113281L5.56640625 389.083984 5.56640625 374.044922C5.56640625 357.996665 9.91206592 349.972656 18.6035156 349.972656zM12.5488281 366.037109L12.5488281 371.066406 14.5507812 371.066406C18.5872598 369.373689 20.6054688 366.688169 20.6054688 363.009766L20.6054688 360.03125C20.6054688 359.054683 19.5963643 358.045578 17.578125 357.003906L16.5527344 357.003906C15.0878833 357.003906 13.7532612 360.014944 12.5488281 366.037109zM42.7734375 394.113281L46.7773438 394.113281C51.4648672 394.113281 53.8085938 398.800734 53.8085938 408.175781 56.21746 413.026066 58.5611865 416.704415 60.8398438 419.210938L60.8398438 421.212891C60.8398438 422.547533 60.1725327 423.214844 58.8378906 423.214844L56.7871094 423.214844C52.1321382 420.675769 49.8046875 417.664731 49.8046875 414.181641L48.7792969 414.181641C48.7792969 416.264984 47.1028813 418.266917 43.75 420.1875L41.7480469 420.1875C36.4094785 420.1875 33.7402344 417.176462 33.7402344 411.154297L33.7402344 410.177734C33.7402344 404.02536 36.751272 398.670596 42.7734375 394.113281zM38.7695312 411.154297C39.4205762 412.456387 39.7460938 413.465491 39.7460938 414.181641L42.7734375 414.181641C45.4427217 405.91337 46.7773438 400.900399 46.7773438 399.142578L44.7753906 399.142578C40.7714644 402.78843 38.7695312 406.792296 38.7695312 411.154297zM75.1953125 389.083984L78.1738281 389.083984 78.1738281 403.146484 79.1992188 408.175781 80.1757812 408.175781C84.1797075 400.233033 86.1816406 394.536476 86.1816406 391.085938L90.234375 391.085938C90.234375 398.052118 92.2363081 404.741504 96.2402344 411.154297L96.2402344 412.179688C96.2402344 413.51433 95.5729233 414.181641 94.2382812 414.181641L92.2363281 414.181641C89.5670439 413.074864 88.2324219 410.731138 88.2324219 407.150391L86.1816406 407.150391C84.5865806 413.172556 81.5918188 416.183594 77.1972656 416.183594 75.1790264 413.742175 74.1699219 411.398449 74.1699219 409.152344L74.1699219 394.113281 75.1953125 389.083984zM115.917969 365.011719C117.252611 365.011719 117.919922 366.020823 117.919922 368.039062 117.268877 399.777502 116.943359 418.169246 116.943359 423.214844L114.941406 424.191406 113.916016 424.191406C112.581374 424.191406 111.914062 423.198578 111.914062 421.212891 111.914062 415.483695 112.581374 397.091952 113.916016 366.037109L115.917969 365.011719zM178.222656 377.072266C185.872434 377.072266 190.218094 381.743443 191.259766 391.085938 189.925124 398.442745 188.264984 402.121094 186.279297 402.121094 183.837878 402.121094 181.152358 400.786472 178.222656 398.117188 177.311193 400.884128 175.651054 402.886062 173.242188 404.123047L172.216797 404.123047C169.970692 404.123047 167.626965 403.130218 165.185547 401.144531L165.185547 405.148438C166.68295 408.501319 170.035781 410.177734 175.244141 410.177734L179.248047 410.177734 183.251953 407.150391 186.279297 407.150391 186.279297 411.154297C184.391267 414.507178 181.705747 416.183594 178.222656 416.183594 165.52728 416.183594 159.179688 410.161519 159.179688 398.117188L159.179688 395.138672C159.179688 386.479774 165.52728 380.457699 178.222656 377.072266zM168.212891 388.107422L170.214844 387.082031 176.220703 387.082031 184.277344 396.115234 185.253906 396.115234 185.253906 387.082031C184.179682 384.412747 181.835956 383.078125 178.222656 383.078125L177.246094 383.078125C171.223928 384.412767 168.212891 386.089183 168.212891 388.107422zM170.214844 397.140625L170.214844 398.117188 171.191406 398.117188C172.786466 398.117188 173.795571 395.773461 174.21875 391.085938L173.242188 391.085938C171.223948 391.769535 170.214844 393.787744 170.214844 397.140625zM237.402344 382.101562L238.378906 382.101562C244.401072 382.101562 247.412109 384.103496 247.412109 388.107422L244.384766 414.181641 239.404297 414.181641C239.404297 412.846999 239.062503 412.179688 238.378906 412.179688 239.713548 405.083298 240.380859 399.403016 240.380859 395.138672 235.042291 395.138672 232.373047 393.787774 232.373047 391.085938L232.373047 387.082031C232.373047 386.203121 234.049462 384.542981 237.402344 382.101562zM237.402344 388.107422L237.402344 390.109375C238.346359 390.109375 239.339187 389.100271 240.380859 387.082031L240.380859 386.105469 239.404297 386.105469C238.069655 386.300782 237.402344 386.968093 237.402344 388.107422zM270.751953 388.107422C272.770192 388.530601 273.779297 391.199845 273.779297 396.115234L273.779297 414.181641C273.779297 415.516283 273.111986 416.183594 271.777344 416.183594L269.775391 416.183594C268.245435 416.183594 267.236331 414.507178 266.748047 411.154297 267.138674 395.789637 268.473296 388.107422 270.751953 388.107422zM296.142578 382.101562L302.148438 382.101562C303.48308 382.296876 304.150391 382.964187 304.150391 384.103516 304.150391 386.7728 303.48308 391.118459 302.148438 397.140625 304.817722 397.140625 306.152344 397.807936 306.152344 399.142578L306.152344 400.119141C302.799462 401.811857 301.123047 405.164688 301.123047 410.177734L299.121094 411.154297 295.117188 411.154297 295.117188 402.121094C293.782545 402.121094 293.115234 401.453783 293.115234 400.119141L293.115234 399.142578C295.784519 397.384757 297.119141 395.708341 297.119141 394.113281 298.453783 390.727848 299.121094 388.384121 299.121094 387.082031L296.142578 387.082031 289.111328 386.105469 289.111328 383.078125 296.142578 382.101562zM325.439453 382.101562L326.416016 382.101562C332.438181 382.101562 335.449219 384.103496 335.449219 388.107422L332.421875 414.181641 327.441406 414.181641C327.441406 412.846999 327.099613 412.179688 326.416016 412.179688 327.750658 405.083298 328.417969 399.403016 328.417969 395.138672 323.0794 395.138672 320.410156 393.787774 320.410156 391.085938L320.410156 387.082031C320.410156 386.203121 322.086572 384.542981 325.439453 382.101562zM325.439453 388.107422L325.439453 390.109375C326.383468 390.109375 327.376297 389.100271 328.417969 387.082031L328.417969 386.105469 327.441406 386.105469C326.106764 386.300782 325.439453 386.968093 325.439453 388.107422zM359.375 384.103516L360.400391 384.103516C361.735033 384.103516 362.402344 385.096344 362.402344 387.082031L356.396484 400.119141 363.378906 400.119141C363.834638 395.431617 364.843742 393.087891 366.40625 393.087891L368.408203 393.087891C370.426442 393.51107 371.435547 396.19659 371.435547 401.144531L371.435547 402.121094 368.408203 406.173828 368.408203 415.158203C368.408203 416.492845 367.740892 417.160156 366.40625 417.160156L365.429688 417.160156C364.062493 417.160156 363.378906 416.492845 363.378906 415.158203L363.378906 406.173828C355.371054 405.652992 351.367188 404.643888 351.367188 403.146484L351.367188 402.121094C351.367188 400.688795 354.036432 394.682996 359.375 384.103516zM392.919922 388.107422C394.938161 388.530601 395.947266 391.199845 395.947266 396.115234L395.947266 414.181641C395.947266 415.516283 395.279955 416.183594 393.945312 416.183594L391.943359 416.183594C390.413404 416.183594 389.404299 414.507178 388.916016 411.154297 389.306643 395.789637 390.641265 388.107422 392.919922 388.107422zM416.992188 388.107422C417.675785 388.107422 418.668613 388.432939 419.970703 389.083984L425.976562 388.107422 427.001953 390.109375 427.001953 391.085938C427.001953 393.104177 423.990916 394.113281 417.96875 394.113281L417.96875 395.138672C423.990916 395.98503 427.001953 398.979792 427.001953 404.123047 427.001953 408.5176 425.00002 411.870431 420.996094 414.181641L414.990234 414.181641 413.964844 410.177734C417.317725 410.177734 419.986969 408.501319 421.972656 405.148438L421.972656 403.146484C421.972656 402.462887 419.645206 400.460954 414.990234 397.140625L414.990234 393.087891C415.152996 389.767562 415.820307 388.107422 416.992188 388.107422zM447.021484 382.101562L447.998047 382.101562C454.020212 382.101562 457.03125 384.103496 457.03125 388.107422L454.003906 414.181641 449.023438 414.181641C449.023438 412.846999 448.681644 412.179688 447.998047 412.179688 449.332689 405.083298 450 399.403016 450 395.138672 444.661432 395.138672 441.992188 393.787774 441.992188 391.085938L441.992188 387.082031C441.992188 386.203121 443.668603 384.542981 447.021484 382.101562zM447.021484 388.107422L447.021484 390.109375C447.9655 390.109375 448.958328 389.100271 450 387.082031L450 386.105469 449.023438 386.105469C447.688795 386.300782 447.021484 386.968093 447.021484 388.107422zM479.150391 383.078125L482.128906 383.078125C483.463548 383.305991 484.130859 383.973302 484.130859 385.080078L484.130859 386.105469C480.81053 386.26823 479.150391 387.261059 479.150391 389.083984L479.150391 391.085938 483.154297 391.085938 483.154297 390.109375 488.183594 390.109375 488.183594 392.111328C488.183594 393.934254 487.500007 395.936187 486.132812 398.117188L488.183594 407.150391C487.239579 409.917332 485.563163 411.919265 483.154297 413.15625L481.152344 413.15625C478.48306 411.821608 477.148438 409.819675 477.148438 407.150391 478.48308 401.063121 479.150391 397.726565 479.150391 397.140625 475.797509 395.122386 474.121094 392.778659 474.121094 390.109375 475.878915 385.812479 477.555331 383.468752 479.150391 383.078125zM509.228516 382.101562L515.234375 382.101562C516.569017 382.296876 517.236328 382.964187 517.236328 384.103516 517.236328 386.7728 516.569017 391.118459 515.234375 397.140625 517.903659 397.140625 519.238281 397.807936 519.238281 399.142578L519.238281 400.119141C515.8854 401.811857 514.208984 405.164688 514.208984 410.177734L512.207031 411.154297 508.203125 411.154297 508.203125 402.121094C506.868483 402.121094 506.201172 401.453783 506.201172 400.119141L506.201172 399.142578C508.870456 397.384757 510.205078 395.708341 510.205078 394.113281 511.53972 390.727848 512.207031 388.384121 512.207031 387.082031L509.228516 387.082031 502.197266 386.105469 502.197266 383.078125 509.228516 382.101562z"/>
</svg>
