<svg xmlns="http://www.w3.org/2000/svg" viewBox="0 0 200 250">
  <title>Sweater</title>
  <path d="M197.4 95.4c-2.1-3.8-13.8-23.5-36.5-39-10.1-6.9-21.7-13.8-24.8-14.7-9-2.7-21.4-4.5-21.9-4.6l-.9-.1-.4.8c-.2.3-4.4 7.9-14.8 8.7-10.3.8-16.3-8.8-16.4-8.9l-.6-.9-1 .3c-1.3.4-2.5.8-3.8 1.2-7 2.3-14.2 4.6-20 7.9-10.6 6-26.6 25.4-33 33.5-8.1 10.3-20.1 26.9-20.1 30.6 0 .7.4 1.3.9 1.6 2.9 1.4 8.3 5.4 9.9 6.6.5.4 1.1.5 1.7.4.6-.1 1.1-.5 1.4-1.1 2.2-3.8 10.3-14.7 38.4-33.2.5-.3 1-.2 1.2-.1.2.1.6.4.6 1l1.1 70.3.5.4c6 4.6 20.6 6 35.9 6 18.1 0 37.4-2.1 45.2-3.6 3.7-.7 4.2-1.2 4.6-1.7.4-.7 1-1.6-1.3-33-1.2-16.7-2.8-35.3-3.4-42.6-.1-.6.3-1 .5-1.1.2-.1.6-.4 1.2-.1 11.4 5.1 39.4 23.1 44.9 26.6 1.5.9 3.4.6 4.5-.7l5.9-7.3c.9-.9 1-2.2.5-3.2zM98.2 49.2c9.9-.8 14.9-7 16.4-9.3.7.1 1.8.3 3.2.5-.1.4-.3.9-.6 1.5-.6 1.3-1.6 3.1-3.3 4.9-.8.9-1.8 1.8-2.9 2.6-1.1.8-2.4 1.5-3.8 2-1.4.6-2.9.9-4.5 1.2-1.6.2-3.2.3-4.8.3-1.6 0-3.2-.2-4.8-.5-1.6-.3-3.1-.7-4.5-1.3-1.4-.6-2.7-1.2-3.9-2-1.2-.8-2.2-1.6-3.1-2.4-1.8-1.7-3-3.4-3.7-4.6-.3-.5-.5-1-.7-1.3.9-.3 1.8-.6 2.8-.9 1.9 2.6 8.1 10.1 18.2 9.3zM139 77.9c-1.1.8-1.8 2.1-1.6 3.5 3.5 41.1 5.4 69.6 5 73.8h-.1l-.9-5.3-.6.1.9 5.4c-.4.1-.9.2-1.5.3l-.8-5.5-.6.1.8 5.5-1.5.3-.8-5.6-.6.1.8 5.6c-.5.1-1 .2-1.5.2l-.8-5.6-.6.1.8 5.6c-.5.1-1 .1-1.5.2l-.7-5.6-.6.1.7 5.6c-.5.1-1 .1-1.5.2l-.7-5.7-.6.1.7 5.7c-.5.1-1 .1-1.5.2l-.7-5.6-.6.1.7 5.6c-.5.1-1 .1-1.5.2l-.7-5.6-.6.1.7 5.6c-.5.1-1 .1-1.5.2l-.6-5.6-.6.1.6 5.6c-.5 0-1 .1-1.5.1l-.6-5.6-.6.1.6 5.6c-.5 0-1 .1-1.5.1l-.6-5.6-.6.1.6 5.6c-.5 0-1 .1-1.5.1l-.5-5.5-.6.1.5 5.5c-.5 0-1 .1-1.5.1l-.5-5.5-.6.1.5 5.5c-.5 0-1 .1-1.5.1l-.5-5.5h-.6l.5 5.5c-.5 0-1 .1-1.5.1l-.4-5.4h-.6l.4 5.4c-.5 0-1 .1-1.5.1l-.4-5.4h-.6l.4 5.4c-.5 0-1 .1-1.5.1l-.4-5.4h-.6l.3 5.4c-.5 0-1 0-1.5.1l-.3-5.3h-.6l.3 5.3h-1.5l-.3-5.3h-.6l.2 5.3h-1.5l-.1-2.4-.1-2.9h-.6l.2 5.3h-1.5l-.1-5.3h-.6l.1 5.3H98V154h-.6v5.3h-1.5V154h-.6l-.1 5.3h-1.5l.3-5.3h-.6l-.2 5.3h-1.5l.3-5.3h-.6l-.2 5.4h-1.5l.3-5.4h-.6l-.3 5.5h-1.5l.4-5.5h-.6l-.4 5.5c-.5 0-1 0-1.5-.1l.4-5.6h-.6l-.5 5.6c-.5 0-1 0-1.5-.1l.5-5.6-.6-.1-.5 5.7c-.5 0-1-.1-1.5-.1l.6-5.7-.6-.1-.6 5.7h.2c-4.8-.4-8.9-1-12.2-1.8l1-5.6-.6-.1-1 5.5c-.5-.1-1-.3-1.5-.4l1-5.4-.6-.1-1 5.3c-.5-.2-1-.3-1.4-.5l1-5.1-.6-.1-1 5c-.5-.2-1-.4-1.4-.6l1-4.6-.6-.1-.9 4.4c-.2-.1-.5-.3-.7-.4l-.1-3.2.3-1.1-.3-.1v.1l-1-64.6c0-1.4-.8-2.7-2.1-3.4-1.3-.7-2.8-.6-4 .2-9.4 6.2-31.7 21.7-38.9 33.6-.2-.2-.5-.4-.8-.6l2.7-3.9-.5-.3-2.7 3.9-1.2-.9 2.7-3.9-.5-.3-2.7 3.9-1.2-.9 2.7-3.9-.5-.3-2.8 3.9c-.4-.3-.8-.6-1.3-.8l2.8-3.9-.5-.3-2.8 3.9c-.4-.3-.9-.6-1.3-.8l2.8-4-.5-.3-2.9 4c-.3-.2-.6-.3-.9-.5.2-.6.7-1.6 1.4-3l1-1.5-.1-.1c3.1-5.2 9.2-13.9 17.2-24.1 13.2-16.7 24.9-28.6 32-32.6 5.1-2.9 11.5-5 17.7-7.1l-3.7 2s.2.3.4.7l4.9-3c0-.1-.1-.1-.1-.2.1 0 .2-.1.3-.1.1.4.3.8.6 1.4.2.4.4.8.7 1.2L73.6 47c.1.2.3.3.4.5l4.4-3.5c.1.2.2.4.4.6.1.1.2.2.2.3l-4.1 3.6c.1.2.3.3.4.5l4-3.6c.2.3.5.6.7.9L76.2 50c.1.2.3.3.5.5l3.8-3.7c.2.2.3.4.5.5l.3.3-3.6 3.8c.2.1.3.3.5.4l3.5-3.9c.3.3.5.5.8.7l-3.3 4c.2.1.3.3.5.4l3.3-4.1c.3.2.6.4.9.7l-3.1 4.2c.2.1.4.3.5.4l3-4.3.9.6-2.9 4.4c.2.1.4.2.6.4l2.8-4.5c.3.2.6.3 1 .5L84.1 56l.6.3 2.5-4.7c.3.1.6.3.9.4h.1l-2.3 4.9.6.3 2.2-5c.3.1.7.2 1 .4l-2 5.1c.2.1.4.2.6.2l1.9-5.2c.3.1.7.2 1 .3l-1.6 5.3c.2.1.4.1.6.2L92 53c.3.1.6.1.9.2h.1l-1.2 5.5c.2 0 .4.1.7.1l1.1-5.6c.4.1.7.1 1.1.2l-.8 5.7c.2 0 .4.1.7.1l.7-5.7c.4 0 .7.1 1.1.1l-.4 5.7h.7l.3-5.7c.4 0 .7.1 1.1.1v5.7H98.7l-.1-5.7h1.1l.3 5.6h.7l-.4-5.6c.4 0 .7 0 1.1-.1l.7 5.6c.2 0 .4-.1.7-.1l-.8-5.5c.4 0 .7-.1 1.1-.1l1 5.5c.2 0 .4-.1.7-.1l-1.2-5.4c.4-.1.7-.1 1.1-.2l1.4 5.3c.2-.1.4-.1.6-.2l-1.5-5.3c.3-.1.7-.2 1-.3L108 58c.2-.1.4-.2.6-.2l-1.9-5.1c.3-.1.7-.2 1-.4l2.2 5 .6-.3-2.3-4.9c.3-.1.7-.3 1-.5l2.5 4.7.6-.3-2.7-4.7c.3-.2.6-.4.9-.5l2.9 4.5c.2-.1.4-.2.6-.4l-3-4.4c.3-.2.5-.3.7-.5l.1-.1 3.2 4.3c.2-.1.4-.3.5-.4l-3.4-4.2c.3-.2.6-.5.8-.7l3.6 4 .5-.5-3.7-3.9c.3-.3.5-.5.7-.8l3.9 3.7.5-.5-4-3.6s0-.1.1-.1c.2-.3.4-.5.6-.8l4.2 3.5c.1-.2.3-.4.4-.5l-4.3-3.4.6-.9 4.5 3.2c.1-.2.3-.4.4-.6l-4.6-3.1c0-.1.1-.2.1-.2.1-.2.2-.5.4-.7l4.8 2.9.3-.6-4.9-2.8c.2-.4.4-.8.5-1.2.3-.6.4-1.2.5-1.5h.1c0 .1-.1.2-.1.3l5.4 2c.1-.2.2-.5.2-.7l-4.4-1.5c4.5.8 11 2.1 16.2 3.7 2.5.7 13.5 7.2 24 14.4 17.7 12.1 28.5 26.7 33.2 34.1l-.1.1.4.3c1.1 1.7 1.8 2.9 2.1 3.6v.1l-3.5-2.9-.4.5 3.5 2.9-1 1.2-3.5-2.9-.4.5 3.5 2.9-1 1.2-3.5-2.9-.4.5 3.5 2.9-1 1.2-3.5-2.9-.4.5 3.5 2.9-1 1.2-3.6-2.9-.4.5 3.6 2.9-.2.3c-.2.3-.6.3-.9.1-.8-.5-1.9-1.2-3.2-2l-.2-.2c-10.3-6.6-31.9-20.2-41.9-24.6-1-.9-2.5-.7-3.6.1z"/>
</svg>
