<svg xmlns="http://www.w3.org/2000/svg" width="648" height="85" viewBox="0 0 648 85">
  <path fill="#EA4630" fill-rule="evenodd" d="M911.466797,112.728516 L916.496094,112.728516 C917.830736,121.094443 918.498047,128.125623 918.498047,133.822266 L918.498047,140.853516 C918.498047,173.601075 914.152387,189.974609 905.460938,189.974609 C904.289057,190.658207 902.954435,191 901.457031,191 C894.100224,191 890.421875,183.301509 890.421875,167.904297 L890.421875,116.78125 C890.617188,115.414056 891.2845,114.730469 892.423828,114.730469 L893.449219,114.730469 L895.451172,115.755859 C894.767575,124.772832 894.425781,131.462218 894.425781,135.824219 L894.425781,149.837891 C894.881513,173.242956 896.883446,184.945312 900.431641,184.945312 L904.484375,184.945312 C908.976585,184.945312 911.645829,172.575645 912.492188,147.835938 L912.492188,134.798828 C912.492188,130.143857 912.150394,122.78716 911.466797,112.728516 Z M955.314453,107.748047 C956.291021,107.748047 957.300125,108.740875 958.341797,110.726562 L948.332031,116.78125 C942.309866,124.235714 939.298828,133.919862 939.298828,145.833984 L939.298828,149.837891 C940.63347,165.495521 943.302714,174.18684 947.306641,175.912109 L953.3125,175.912109 C958.683621,172.233706 961.369141,164.551491 961.369141,152.865234 L961.369141,150.863281 L957.365234,146.859375 L957.365234,145.833984 C957.365234,144.889969 958.358063,143.897141 960.34375,142.855469 L965.373047,142.855469 C968.725928,142.855469 970.727861,144.190091 971.378906,146.859375 C970.207025,149.007823 968.53061,157.031832 966.349609,170.931641 C962.964176,179.62309 957.283894,183.96875 949.308594,183.96875 C940.356726,183.96875 934.676444,172.933704 932.267578,150.863281 L932.267578,149.837891 C934.708997,121.777854 942.391211,107.748047 955.314453,107.748047 Z M985.929688,114.730469 L986.955078,114.730469 C988.940765,114.730469 989.933594,120.752544 989.933594,132.796875 L989.933594,161.898438 L990.958984,171.908203 L993.9375,171.908203 L1000.96875,170.931641 L1002.9707,173.910156 C1002.9707,175.114589 1000.62698,176.791005 995.939453,178.939453 C988.615198,178.939453 984.953125,175.261104 984.953125,167.904297 C984.269528,159.83134 983.927734,150.814503 983.927734,140.853516 L983.927734,116.78125 C984.123048,115.414056 984.790359,114.730469 985.929688,114.730469 Z M1031.04688,106.722656 C1032.02344,106.722656 1033.03255,107.731761 1034.07422,109.75 C1026.06637,128.695407 1022.0625,142.057904 1022.0625,149.837891 C1022.0625,165.495521 1021.37891,176.205049 1020.01172,181.966797 L1017.0332,181.966797 L1015.03125,180.941406 C1017.01694,159.749894 1018.00977,146.387397 1018.00977,140.853516 C1016.47981,140.853516 1013.14325,130.485781 1008,109.75 L1008,107.748047 L1010.00195,107.748047 C1011.82488,107.748047 1014.83592,115.430262 1019.03516,130.794922 L1020.01172,130.794922 C1025.57815,115.527918 1029.2565,107.50391 1031.04688,106.722656 Z M1076.50586,106.722656 L1077.53125,106.722656 C1078.47527,106.722656 1079.46809,107.731761 1080.50977,109.75 L1080.50977,111.751953 L1075.48047,111.751953 C1070.8255,115.169939 1068.49805,118.506494 1068.49805,121.761719 C1068.49805,126.481794 1073.83654,134.180285 1084.51367,144.857422 C1087.21551,151.042349 1088.56641,155.388008 1088.56641,157.894531 L1088.56641,162.875 C1088.56641,174.170629 1083.53716,182.536431 1073.47852,187.972656 L1069.47461,187.972656 C1068.13997,187.972656 1067.47266,187.305345 1067.47266,185.970703 L1067.47266,183.96875 C1077.49875,178.044241 1082.51172,171.354855 1082.51172,163.900391 L1082.51172,159.896484 C1082.51172,153.548796 1076.50592,143.848373 1064.49414,130.794922 L1063.46875,125.765625 L1063.46875,119.759766 C1065.74741,111.068316 1070.09307,106.722656 1076.50586,106.722656 Z M1136.27148,110.726562 C1137.60613,110.954428 1138.27344,111.621739 1138.27344,112.728516 C1133.61847,164.226169 1129.94012,189.974609 1127.23828,189.974609 C1124.92707,190.658207 1123.59245,191 1123.23438,191 C1120.56509,188.167955 1119.23047,185.482435 1119.23047,182.943359 L1117.22852,182.943359 C1117.22852,188.31448 1116.21941,191 1114.20117,191 L1112.19922,191 C1108.19529,191 1105.52605,179.964954 1104.19141,157.894531 L1104.19141,124.789062 L1105.2168,114.730469 L1108.19531,114.730469 C1108.19531,116.976574 1108.53711,118.652989 1109.2207,119.759766 C1108.53711,130.990291 1108.19531,139.68161 1108.19531,145.833984 L1108.19531,147.835938 C1108.19531,154.899775 1109.20442,165.934821 1111.22266,180.941406 L1113.22461,180.941406 C1114.72201,163.558507 1116.39843,154.867188 1118.25391,154.867188 L1119.23047,154.867188 C1120.23959,154.867188 1121.24869,156.20181 1122.25781,158.871094 C1122.25781,159.587243 1121.91602,160.596348 1121.23242,161.898438 L1124.25977,181.966797 L1125.23633,181.966797 C1129.27281,134.47307 1132.28384,110.726562 1134.26953,110.726562 L1136.27148,110.726562 Z M1169.18164,119.759766 L1172.20898,119.759766 C1173.153,119.759766 1174.1621,120.76887 1175.23633,122.787109 C1174.35742,123.731125 1169.99548,125.40754 1162.15039,127.816406 C1160.1647,136.800826 1159.17188,143.148419 1159.17188,146.859375 L1159.17188,148.861328 C1161.19011,148.861328 1163.53384,149.186846 1166.20312,149.837891 L1166.20312,151.839844 C1166.20312,153.207038 1165.53581,153.890625 1164.20117,153.890625 L1158.14648,153.890625 L1157.16992,163.900391 L1157.16992,167.904297 C1157.16992,176.595747 1159.51365,180.941406 1164.20117,180.941406 C1170.19079,181.071615 1173.18555,182.08072 1173.18555,183.96875 L1173.18555,184.945312 C1172.5345,186.963552 1170.53257,187.972656 1167.17969,187.972656 C1155.81895,187.972656 1150.13867,181.625063 1150.13867,168.929688 C1152.15691,136.833173 1156.16078,120.785156 1162.15039,120.785156 L1169.18164,119.759766 Z M1204.09375,121.761719 L1211.125,121.761719 C1217.30993,121.761719 1220.98828,144.157328 1222.16016,188.949219 L1219.13281,191 C1215.77993,191 1214.10352,180.290472 1214.10352,158.871094 C1210.09959,160.205736 1201.40827,160.873047 1188.0293,160.873047 C1188.0293,160.222002 1187.70378,159.896484 1187.05273,159.896484 C1184.54621,169.076218 1182.8698,177.767537 1182.02344,185.970703 L1179.04492,185.970703 L1178.01953,180.941406 C1178.01953,160.954327 1184.70892,142.562584 1198.08789,125.765625 C1199.42253,125.765625 1201.42447,124.431003 1204.09375,121.761719 Z M1189.05469,152.865234 L1191.05664,152.865234 C1198.96684,152.865234 1206.32353,151.85613 1213.12695,149.837891 C1212.08528,134.47323 1210.08335,126.791016 1207.12109,126.791016 C1199.47132,130.729837 1193.44924,139.421157 1189.05469,152.865234 Z M1254.92383,106.722656 C1257.59311,107.731776 1258.92773,108.74088 1258.92773,109.75 L1258.92773,110.726562 C1258.24414,112.744802 1256.2422,113.753906 1252.92188,113.753906 L1246.86719,113.753906 C1246.21614,134.554792 1245.89062,148.259082 1245.89062,154.867188 C1245.89062,158.38283 1246.21614,164.063112 1246.86719,171.908203 C1246.21614,175.163428 1245.89062,179.509087 1245.89062,184.945312 L1240.86133,184.945312 L1240.86133,113.753906 L1229.82617,113.753906 C1228.49153,113.753906 1227.82422,113.086595 1227.82422,111.751953 L1227.82422,110.726562 C1227.82422,108.903637 1236.85733,107.569015 1254.92383,106.722656 Z M1282.70703,119.759766 L1285.73438,119.759766 C1286.67839,119.759766 1287.68749,120.76887 1288.76172,122.787109 C1287.88281,123.731125 1283.52087,125.40754 1275.67578,127.816406 C1273.69009,136.800826 1272.69727,143.148419 1272.69727,146.859375 L1272.69727,148.861328 C1274.7155,148.861328 1277.05923,149.186846 1279.72852,149.837891 L1279.72852,151.839844 C1279.72852,153.207038 1279.0612,153.890625 1277.72656,153.890625 L1271.67188,153.890625 L1270.69531,163.900391 L1270.69531,167.904297 C1270.69531,176.595747 1273.03904,180.941406 1277.72656,180.941406 C1283.71618,181.071615 1286.71094,182.08072 1286.71094,183.96875 L1286.71094,184.945312 C1286.05989,186.963552 1284.05796,187.972656 1280.70508,187.972656 C1269.34434,187.972656 1263.66406,181.625063 1263.66406,168.929688 C1265.6823,136.833173 1269.68617,120.785156 1275.67578,120.785156 L1282.70703,119.759766 Z M1303.99609,112.728516 C1309.56253,112.728516 1313.24088,116.081347 1315.03125,122.787109 C1315.03125,126.172543 1311.67842,131.852825 1304.97266,139.828125 C1307.21876,139.828125 1313.24084,151.856 1323.03906,175.912109 L1324.06445,181.966797 L1324.06445,183.96875 L1319.03516,183.96875 C1319.03516,181.266914 1313.68039,168.897246 1302.9707,146.859375 L1301.99414,146.859375 C1301.31054,160.238348 1300.96875,170.26429 1300.96875,176.9375 L1300.96875,182.943359 C1300.96875,184.278001 1300.30144,184.945312 1298.9668,184.945312 L1296.96484,184.945312 C1295.6302,184.945312 1294.96289,184.278001 1294.96289,182.943359 L1294.96289,153.890625 C1294.96289,127.132679 1296.63931,113.753906 1299.99219,113.753906 C1301.16407,113.070309 1302.49869,112.728516 1303.99609,112.728516 Z M1301.99414,118.783203 L1300.96875,128.792969 L1300.96875,131.820312 L1301.99414,131.820312 C1305.99807,129.085924 1308,125.733093 1308,121.761719 C1307.3164,119.776032 1305.31447,118.783203 1301.99414,118.783203 Z M1376.45703,108.724609 C1381.53518,108.724609 1384.52994,113.412063 1385.44141,122.787109 C1385.44141,128.646514 1380.42844,133.985002 1370.40234,138.802734 C1369.7513,148.177781 1369.08399,152.865234 1368.40039,152.865234 L1369.42578,157.894531 L1369.42578,181.966797 C1369.42578,183.301439 1368.75847,183.96875 1367.42383,183.96875 L1364.39648,183.96875 C1363.58268,168.343672 1362.91537,158.985042 1362.39453,155.892578 L1363.41992,153.890625 C1363.41992,153.207028 1363.07813,152.865234 1362.39453,152.865234 L1363.41992,147.835938 L1363.41992,132.796875 C1363.41992,116.748618 1367.76558,108.724609 1376.45703,108.724609 Z M1370.40234,124.789062 L1370.40234,129.818359 L1372.4043,129.818359 C1376.44078,128.125643 1378.45898,125.440123 1378.45898,121.761719 L1378.45898,118.783203 C1378.45898,117.806636 1377.44988,116.797531 1375.43164,115.755859 L1374.40625,115.755859 C1372.9414,115.755859 1371.60678,118.766897 1370.40234,124.789062 Z M1414.00586,121.761719 L1421.03711,121.761719 C1427.22204,121.761719 1430.90038,144.157328 1432.07227,188.949219 L1429.04492,191 C1425.69204,191 1424.01562,180.290472 1424.01562,158.871094 C1420.0117,160.205736 1411.32038,160.873047 1397.94141,160.873047 C1397.94141,160.222002 1397.61589,159.896484 1396.96484,159.896484 C1394.45832,169.076218 1392.78191,177.767537 1391.93555,185.970703 L1388.95703,185.970703 L1387.93164,180.941406 C1387.93164,160.954327 1394.62103,142.562584 1408,125.765625 C1409.33464,125.765625 1411.33658,124.431003 1414.00586,121.761719 Z M1398.9668,152.865234 L1400.96875,152.865234 C1408.87895,152.865234 1416.23564,151.85613 1423.03906,149.837891 C1421.99739,134.47323 1419.99546,126.791016 1417.0332,126.791016 C1409.38343,130.729837 1403.36135,139.421157 1398.9668,152.865234 Z M1457.26758,112.728516 C1462.83401,112.728516 1466.51236,116.081347 1468.30273,122.787109 C1468.30273,126.172543 1464.9499,131.852825 1458.24414,139.828125 C1460.49025,139.828125 1466.51232,151.856 1476.31055,175.912109 L1477.33594,181.966797 L1477.33594,183.96875 L1472.30664,183.96875 C1472.30664,181.266914 1466.95188,168.897246 1456.24219,146.859375 L1455.26562,146.859375 C1454.58203,160.238348 1454.24023,170.26429 1454.24023,176.9375 L1454.24023,182.943359 C1454.24023,184.278001 1453.57292,184.945312 1452.23828,184.945312 L1450.23633,184.945312 C1448.90169,184.945312 1448.23438,184.278001 1448.23438,182.943359 L1448.23438,153.890625 C1448.23438,127.132679 1449.91079,113.753906 1453.26367,113.753906 C1454.43555,113.070309 1455.77017,112.728516 1457.26758,112.728516 Z M1455.26562,118.783203 L1454.24023,128.792969 L1454.24023,131.820312 L1455.26562,131.820312 C1459.26955,129.085924 1461.27148,125.733093 1461.27148,121.761719 C1460.58789,119.776032 1458.58595,118.783203 1455.26562,118.783203 Z M1506.14453,106.722656 C1508.81382,107.731776 1510.14844,108.74088 1510.14844,109.75 L1510.14844,110.726562 C1509.46484,112.744802 1507.46291,113.753906 1504.14258,113.753906 L1498.08789,113.753906 C1497.43685,134.554792 1497.11133,148.259082 1497.11133,154.867188 C1497.11133,158.38283 1497.43685,164.063112 1498.08789,171.908203 C1497.43685,175.163428 1497.11133,179.509087 1497.11133,184.945312 L1492.08203,184.945312 L1492.08203,113.753906 L1481.04688,113.753906 C1479.71223,113.753906 1479.04492,113.086595 1479.04492,111.751953 L1479.04492,110.726562 C1479.04492,108.903637 1488.07803,107.569015 1506.14453,106.722656 Z M1534.26953,106.722656 C1535.2461,106.722656 1536.2552,107.731761 1537.29688,109.75 C1529.28902,128.695407 1525.28516,142.057904 1525.28516,149.837891 C1525.28516,165.495521 1524.60157,176.205049 1523.23438,181.966797 L1520.25586,181.966797 L1518.25391,180.941406 C1520.23959,159.749894 1521.23242,146.387397 1521.23242,140.853516 C1519.70247,140.853516 1516.36591,130.485781 1511.22266,109.75 L1511.22266,107.748047 L1513.22461,107.748047 C1515.04754,107.748047 1518.05857,115.430262 1522.25781,130.794922 L1523.23438,130.794922 C1528.80081,115.527918 1532.47916,107.50391 1534.26953,106.722656 Z" transform="translate(-890 -106)"/>
</svg>
